<svg width="232.5125px" height="122px" xmlns="http://www.w3.org/2000/svg" viewBox="133.74375 14 232.5125 122" style="background:#051103" preserveAspectRatio="xMidYMid"><defs><linearGradient id="editing-glowing-gradient" x1="0.8146601955249185" x2="0.18533980447508147" y1="0.8885729807284856" y2="0.11142701927151444"><stop offset="0" stop-color="#67ff43"></stop><stop offset="1" stop-color="#90ffff"></stop></linearGradient><filter id="editing-glowing" x="-100%" y="-100%" width="300%" height="300%"><feGaussianBlur in="SourceGraphic" result="blur" stdDeviation="10"></feGaussianBlur><feMerge><feMergeNode in="blur"></feMergeNode><feMergeNode in="SourceGraphic"></feMergeNode></feMerge></filter></defs><g filter="url(#editing-glowing)"><g transform="translate(171.9500161409378, 95.44999885559082)"><path d="M32.51-26.62L32.51-26.62L32.51-26.62Q32.51-23.94 30.27-22.27L30.27-22.27L30.27-22.27Q28.03-20.61 24.38-20.61L24.38-20.61L24.38-20.61Q22.85-20.61 21.95-21.06L21.95-21.06L21.95-21.06Q22.66-22.72 22.88-24.80L22.88-24.80L22.88-24.80Q23.10-26.88 23.10-27.46L23.10-27.46L23.10-27.46Q23.10-30.14 21.25-30.14L21.25-30.14L21.25-30.14Q19.97-30.14 18.53-28.54L18.53-28.54L18.53-28.54Q17.09-26.94 15.87-24.45L15.87-24.45L15.87-24.45Q13.18-18.69 13.18-12.86L13.18-12.86L13.18-12.86Q13.18-9.66 14.40-8.22L14.40-8.22L14.40-8.22Q15.62-6.78 18.30-6.78L18.30-6.78L18.30-6.78Q22.02-6.78 24.96-9.86L24.96-9.86L24.96-9.86Q25.79-10.82 26.24-11.90L26.24-11.90L26.24-11.90Q28.67-10.62 28.67-7.10L28.67-7.10L28.67-7.10Q28.67-3.52 24.70-1.15L24.70-1.15L24.70-1.15Q20.61 1.28 14.08 1.28L14.08 1.28L14.08 1.28Q1.09 1.28 1.09-12.48L1.09-12.48L1.09-12.48Q1.09-22.53 6.78-28.29L6.78-28.29L6.78-28.29Q12.29-33.92 22.40-33.92L22.40-33.92L22.40-33.92Q32.51-33.92 32.51-26.62ZM48.19 1.28L48.19 1.28L48.19 1.28Q34.11 1.28 34.11-11.97L34.11-11.97L34.11-11.97Q34.11-21.38 39.30-27.46L39.30-27.46L39.30-27.46Q44.80-33.92 54.34-33.92L54.34-33.92L54.34-33.92Q61.25-33.92 64.77-30.72L64.77-30.72L64.77-30.72Q68.29-27.52 68.29-20.80L68.29-20.80L68.29-20.80Q68.29-10.56 62.78-4.61L62.78-4.61L62.78-4.61Q57.41 1.28 48.19 1.28ZM49.86-26.56L49.86-26.56L49.86-26.56Q49.09-24.83 48.48-22.24L48.48-22.24L48.48-22.24Q47.87-19.65 47.10-15.55L47.10-15.55L47.10-15.55Q46.34-11.46 46.34-6.40L46.34-6.40L46.34-6.40Q46.34-4.74 46.88-3.65L46.88-3.65L46.88-3.65Q47.42-2.56 48.90-2.56L48.90-2.56L48.90-2.56Q50.37-2.56 51.30-3.26L51.30-3.26L51.30-3.26Q52.22-3.97 52.93-5.63L52.93-5.63L52.93-5.63Q54.21-8.58 55.23-14.05L55.23-14.05L55.23-14.05Q56.26-19.52 56.35-21.89L56.35-21.89L56.35-21.89Q56.45-24.26 56.45-26.02L56.45-26.02L56.45-26.02Q56.45-27.78 55.94-28.93L55.94-28.93L55.94-28.93Q55.42-30.08 53.98-30.08L53.98-30.08L53.98-30.08Q52.54-30.08 51.58-29.18L51.58-29.18L51.58-29.18Q50.62-28.29 49.86-26.56ZM91.20-22.46L91.20-22.46L91.20-22.46Q92.10-24.83 92.10-26.88L92.10-26.88L92.10-26.88Q92.10-30.66 89.02-30.66L89.02-30.66L89.02-30.66Q87.42-30.66 86.11-29.22L86.11-29.22L86.11-29.22Q84.80-27.78 84.80-25.98L84.80-25.98L84.80-25.98Q84.80-24.70 85.82-23.68L85.82-23.68L85.82-23.68Q87.30-22.27 91.07-19.97L91.07-19.97L91.07-19.97Q94.85-17.66 96.29-15.78L96.29-15.78L96.29-15.78Q97.73-13.89 97.73-11.30L97.73-11.30L97.73-11.30Q97.73-8.70 96.48-6.34L96.48-6.34L96.48-6.34Q95.23-3.97 92.99-2.30L92.99-2.30L92.99-2.30Q88.19 1.28 80.51 1.28L80.51 1.28L80.51 1.28Q76.35 1.28 73.15-0.90L73.15-0.90L73.15-0.90Q69.95-3.01 69.95-5.50L69.95-5.50L69.95-5.50Q69.95-8 71.78-9.47L71.78-9.47L71.78-9.47Q73.60-10.94 76.29-10.94L76.29-10.94L76.29-10.94Q78.98-10.94 80.64-9.92L80.64-9.92L80.64-9.92Q79.81-7.81 79.81-6.40L79.81-6.40L79.81-6.40Q79.81-2.18 83.39-2.18L83.39-2.18L83.39-2.18Q84.93-2.18 85.95-3.14L85.95-3.14L85.95-3.14Q86.98-4.10 86.98-5.76L86.98-5.76L86.98-5.76Q86.98-9.02 81.47-12.48L81.47-12.48L81.47-12.48Q76.99-15.42 75.97-16.58L75.97-16.58L75.97-16.58Q74.24-18.62 74.24-21.18L74.24-21.18L74.24-21.18Q74.24-23.74 75.46-26.18L75.46-26.18L75.46-26.18Q76.67-28.61 78.91-30.34L78.91-30.34L78.91-30.34Q83.58-33.92 91.71-33.92L91.71-33.92L91.71-33.92Q95.87-33.92 98.34-32.26L98.34-32.26L98.34-32.26Q100.80-30.59 100.80-27.78L100.80-27.78L100.80-27.78Q100.80-24.96 99.10-23.36L99.10-23.36L99.10-23.36Q97.41-21.76 94.34-21.76L94.34-21.76L94.34-21.76Q92.22-21.76 91.20-22.46ZM104.19-6.40L104.19-6.40L104.19-6.40Q104.19-8.13 105.09-12.48L105.09-12.48L108.48-29.76L104.70-29.76L104.96-31.68L104.96-31.68Q112.64-33.98 120.06-39.62L120.06-39.62L123.14-39.62L121.60-32.64L126.59-32.64L126.02-29.76L121.09-29.76L117.82-12.48L117.82-12.48Q116.99-8.51 116.99-7.17L116.99-7.17L116.99-7.17Q116.99-4.10 119.68-3.46L119.68-3.46L119.68-3.46Q119.04-1.28 116.74 0L116.74 0L116.74 0Q114.43 1.28 111.17 1.28L111.17 1.28L111.17 1.28Q107.90 1.28 106.05-0.77L106.05-0.77L106.05-0.77Q104.19-2.82 104.19-6.40ZM145.41-22.46L145.41-22.46L145.41-22.46Q146.30-24.83 146.30-26.88L146.30-26.88L146.30-26.88Q146.30-30.66 143.23-30.66L143.23-30.66L143.23-30.66Q141.63-30.66 140.32-29.22L140.32-29.22L140.32-29.22Q139.01-27.78 139.01-25.98L139.01-25.98L139.01-25.98Q139.01-24.70 140.03-23.68L140.03-23.68L140.03-23.68Q141.50-22.27 145.28-19.97L145.28-19.97L145.28-19.97Q149.06-17.66 150.50-15.78L150.50-15.78L150.50-15.78Q151.94-13.89 151.94-11.30L151.94-11.30L151.94-11.30Q151.94-8.70 150.69-6.34L150.69-6.34L150.69-6.34Q149.44-3.97 147.20-2.30L147.20-2.30L147.20-2.30Q142.40 1.28 134.72 1.28L134.72 1.28L134.72 1.28Q130.56 1.28 127.36-0.90L127.36-0.90L127.36-0.90Q124.16-3.01 124.16-5.50L124.16-5.50L124.16-5.50Q124.16-8 125.98-9.47L125.98-9.47L125.98-9.47Q127.81-10.94 130.50-10.94L130.50-10.94L130.50-10.94Q133.18-10.94 134.85-9.92L134.85-9.92L134.85-9.92Q134.02-7.81 134.02-6.40L134.02-6.40L134.02-6.40Q134.02-2.18 137.60-2.18L137.60-2.18L137.60-2.18Q139.14-2.18 140.16-3.14L140.16-3.14L140.16-3.14Q141.18-4.10 141.18-5.76L141.18-5.76L141.18-5.76Q141.18-9.02 135.68-12.48L135.68-12.48L135.68-12.48Q131.20-15.42 130.18-16.58L130.18-16.58L130.18-16.58Q128.45-18.62 128.45-21.18L128.45-21.18L128.45-21.18Q128.45-23.74 129.66-26.18L129.66-26.18L129.66-26.18Q130.88-28.61 133.12-30.34L133.12-30.34L133.12-30.34Q137.79-33.92 145.92-33.92L145.92-33.92L145.92-33.92Q150.08-33.92 152.54-32.26L152.54-32.26L152.54-32.26Q155.01-30.59 155.01-27.78L155.01-27.78L155.01-27.78Q155.01-24.96 153.31-23.36L153.31-23.36L153.31-23.36Q151.62-21.76 148.54-21.76L148.54-21.76L148.54-21.76Q146.43-21.76 145.41-22.46Z" fill="url(#editing-glowing-gradient)"></path></g></g><style>text {
  font-size: 64px;
  font-family: Arial Black;
  dominant-baseline: central;
  text-anchor: middle;
}</style></svg>